<?xml version="1.0" encoding="UTF-8"?>
<!--Generator: Apple Native CoreSVG 341-->
<!DOCTYPE svg
PUBLIC "-//W3C//DTD SVG 1.1//EN"
       "http://www.w3.org/Graphics/SVG/1.1/DTD/svg11.dtd">
<svg version="1.1" xmlns="http://www.w3.org/2000/svg" xmlns:xlink="http://www.w3.org/1999/xlink" viewBox="0 0 19.9468 15.2817">
 <g>
  <rect height="15.2817" opacity="0" width="19.9468" x="0" y="0"/>
  <path d="M6.07617 14.4102L7.4126 14.4102L7.4126 0.879883L6.07617 0.879883ZM12.1606 14.4102L13.4971 14.4102L13.4971 0.879883L12.1606 0.879883ZM2.60645 15.2817L16.9668 15.2817C18.71 15.2817 19.5732 14.4268 19.5732 12.7168L19.5732 2.57324C19.5732 0.863281 18.71 0 16.9668 0L2.60645 0C0.871582 0 0 0.863281 0 2.57324L0 12.7168C0 14.4268 0.871582 15.2817 2.60645 15.2817ZM2.62305 13.9453C1.79297 13.9453 1.33643 13.5054 1.33643 12.6421L1.33643 2.64795C1.33643 1.78467 1.79297 1.33643 2.62305 1.33643L16.9502 1.33643C17.772 1.33643 18.2368 1.78467 18.2368 2.64795L18.2368 12.6421C18.2368 13.5054 17.772 13.9453 16.9502 13.9453Z" fill="black" fill-opacity="0.85"/>
 </g>
</svg>
