<?xml version="1.0" encoding="UTF-8"?>
<!--Generator: Apple Native CoreSVG 341-->
<!DOCTYPE svg
PUBLIC "-//W3C//DTD SVG 1.1//EN"
       "http://www.w3.org/Graphics/SVG/1.1/DTD/svg11.dtd">
<svg version="1.1" xmlns="http://www.w3.org/2000/svg" xmlns:xlink="http://www.w3.org/1999/xlink" viewBox="0 0 18.0038 8.39795">
 <g>
  <rect height="8.39795" opacity="0" width="18.0038" x="0" y="0"/>
  <path d="M0.216733 6.8999C-0.386295 7.67432 0.388119 8.30273 1.08636 7.89648L5.68841 5.26855L11.1474 8.19482C11.4013 8.32178 11.6171 8.39795 11.8266 8.39795C12.1186 8.39795 12.3852 8.26465 12.6391 7.94092L17.311 2.0376C17.8188 1.39648 17.1967 0.603027 16.4286 1.03467L11.8266 3.68164L6.36126 0.755371C6.11371 0.615723 5.88519 0.552246 5.68206 0.552246C5.38372 0.552246 5.12982 0.685547 4.87591 1.00928ZM1.65765 6.65234C1.58148 6.69043 1.54339 6.62695 1.59417 6.56982L5.61224 1.70117C5.70111 1.58691 5.78363 1.57422 5.90423 1.6377L11.5981 4.67822C11.8647 4.81787 11.9472 4.77979 12.1567 4.64648L15.8764 2.27881C15.9335 2.24072 15.997 2.3042 15.9462 2.36133L11.9091 7.24902C11.8202 7.35693 11.7314 7.37598 11.6171 7.3125L5.91693 4.27197C5.65033 4.13232 5.56781 4.16406 5.35833 4.29736Z" fill="black" fill-opacity="0.85"/>
 </g>
</svg>
