<?xml version="1.0" encoding="UTF-8"?>
<!--Generator: Apple Native CoreSVG 341-->
<!DOCTYPE svg
PUBLIC "-//W3C//DTD SVG 1.1//EN"
       "http://www.w3.org/Graphics/SVG/1.1/DTD/svg11.dtd">
<svg version="1.1" xmlns="http://www.w3.org/2000/svg" xmlns:xlink="http://www.w3.org/1999/xlink" viewBox="0 0 19.9717 14.186">
 <g>
  <rect height="14.186" opacity="0" width="19.9717" x="0" y="0"/>
  <path d="M7.4292 11.2974C7.4292 11.5547 7.62842 11.7622 7.89404 11.7622C8.14307 11.7622 8.35059 11.5547 8.35059 11.2974L8.35059 9.5791C8.35059 9.33008 8.14307 9.12256 7.89404 9.12256C7.62842 9.12256 7.4292 9.33008 7.4292 9.5791ZM9.33008 11.2974C9.33008 11.5547 9.5376 11.7622 9.80322 11.7622C10.0522 11.7622 10.2598 11.5547 10.2598 11.2974L10.2598 9.5791C10.2598 9.33008 10.0522 9.12256 9.80322 9.12256C9.5376 9.12256 9.33008 9.33008 9.33008 9.5791ZM11.2393 11.2974C11.2393 11.5547 11.4468 11.7622 11.7041 11.7622C11.9614 11.7622 12.1689 11.5547 12.1689 11.2974L12.1689 9.5791C12.1689 9.33008 11.9614 9.12256 11.7041 9.12256C11.4468 9.12256 11.2393 9.33008 11.2393 9.5791ZM13.1484 11.2974C13.1484 11.5547 13.3477 11.7622 13.6133 11.7622C13.8706 11.7622 14.0698 11.5547 14.0698 11.2974L14.0698 9.5791C14.0698 9.33008 13.8706 9.12256 13.6133 9.12256C13.3477 9.12256 13.1484 9.33008 13.1484 9.5791ZM15.0576 11.2974C15.0576 11.5547 15.2568 11.7622 15.5225 11.7622C15.7715 11.7622 15.979 11.5547 15.979 11.2974L15.979 9.5791C15.979 9.33008 15.7715 9.12256 15.5225 9.12256C15.2568 9.12256 15.0576 9.33008 15.0576 9.5791ZM0 10.4424C0 12.5508 1.63525 14.186 3.94287 14.186L15.6553 14.186C17.9629 14.186 19.5981 12.5508 19.5981 10.4424C19.5981 9.81982 19.4155 9.26367 19.1997 8.74072L16.4023 2.02539C15.8545 0.697266 14.7256 0.0166016 13.2397 0.0166016L6.3584 0.0166016C4.87256 0.0166016 3.74365 0.697266 3.1958 2.02539L0.390137 8.74072C0.182617 9.25537 0 9.81982 0 10.4424ZM1.33643 10.4424C1.33643 9.07275 2.37402 8.03516 3.94287 8.03516L15.6553 8.03516C17.2241 8.03516 18.2617 9.07275 18.2617 10.4424C18.2617 11.978 17.2241 12.8496 15.6553 12.8496L3.94287 12.8496C2.37402 12.8496 1.33643 11.812 1.33643 10.4424ZM2.68115 6.91455L4.49072 2.36572C4.80615 1.57715 5.48682 1.17871 6.4248 1.17871L13.1733 1.17871C14.1113 1.17871 14.8003 1.57715 15.1074 2.36572L16.917 6.91455C16.5269 6.77344 16.1118 6.69873 15.6553 6.69873L3.94287 6.69873C3.48633 6.69873 3.06299 6.77344 2.68115 6.91455Z" fill="black" fill-opacity="0.85"/>
 </g>
</svg>
