<?xml version="1.0" encoding="UTF-8"?>
<!--Generator: Apple Native CoreSVG 341-->
<!DOCTYPE svg
PUBLIC "-//W3C//DTD SVG 1.1//EN"
       "http://www.w3.org/Graphics/SVG/1.1/DTD/svg11.dtd">
<svg version="1.1" xmlns="http://www.w3.org/2000/svg" xmlns:xlink="http://www.w3.org/1999/xlink" viewBox="0 0 16.4438 19.9634">
 <g>
  <rect height="19.9634" opacity="0" width="16.4438" x="0" y="0"/>
  <path d="M5.50342 15.9624C5.17969 15.9624 4.97217 15.7715 4.95557 15.4561L4.70654 6.31689C4.69824 6.00977 4.90576 5.81055 5.23779 5.81055C5.54492 5.81055 5.76074 6.00146 5.76904 6.30859L6.03467 15.4561C6.04297 15.7632 5.82715 15.9624 5.50342 15.9624ZM8.03516 15.9624C7.71143 15.9624 7.4873 15.7632 7.4873 15.4561L7.4873 6.31689C7.4873 6.00977 7.71143 5.81055 8.03516 5.81055C8.35889 5.81055 8.59131 6.00977 8.59131 6.31689L8.59131 15.4561C8.59131 15.7632 8.35889 15.9624 8.03516 15.9624ZM10.5752 15.9624C10.2515 15.9624 10.0356 15.7632 10.0439 15.4561L10.3013 6.31689C10.3096 6.00146 10.5254 5.81055 10.8325 5.81055C11.1646 5.81055 11.3721 6.00977 11.3638 6.31689L11.1147 15.4561C11.0981 15.7715 10.8906 15.9624 10.5752 15.9624ZM4.39111 3.79346L5.71094 3.79346L5.71094 2.01709C5.71094 1.54395 6.04297 1.23682 6.54102 1.23682L9.5127 1.23682C10.0107 1.23682 10.3428 1.54395 10.3428 2.01709L10.3428 3.79346L11.6626 3.79346L11.6626 1.93408C11.6626 0.730469 10.8823 0 9.604 0L6.44971 0C5.17139 0 4.39111 0.730469 4.39111 1.93408ZM0.622559 4.45752L15.4561 4.45752C15.7964 4.45752 16.0703 4.16699 16.0703 3.82666C16.0703 3.48633 15.7964 3.2041 15.4561 3.2041L0.622559 3.2041C0.290527 3.2041 0 3.48633 0 3.82666C0 4.17529 0.290527 4.45752 0.622559 4.45752ZM4.2334 18.4858L11.8452 18.4858C13.0322 18.4858 13.8291 17.7139 13.8872 16.5269L14.4683 4.2832L1.60205 4.2832L2.19141 16.5352C2.24951 17.7222 3.02979 18.4858 4.2334 18.4858Z" fill="black" fill-opacity="0.85"/>
 </g>
</svg>
