<?xml version="1.0" encoding="UTF-8"?>
<!--Generator: Apple Native CoreSVG 341-->
<!DOCTYPE svg
PUBLIC "-//W3C//DTD SVG 1.1//EN"
       "http://www.w3.org/Graphics/SVG/1.1/DTD/svg11.dtd">
<svg version="1.1" xmlns="http://www.w3.org/2000/svg" xmlns:xlink="http://www.w3.org/1999/xlink" viewBox="0 0 16.4438 19.9634">
 <g>
  <rect height="19.9634" opacity="0" width="16.4438" x="0" y="0"/>
  <path d="M5.57812 15.813C5.89355 15.813 6.10107 15.6138 6.09277 15.3232L5.83545 6.44141C5.82715 6.15088 5.61963 5.95996 5.3208 5.95996C5.00537 5.95996 4.79785 6.15918 4.80615 6.44971L5.05518 15.3232C5.06348 15.6221 5.271 15.813 5.57812 15.813ZM8.03516 15.813C8.35059 15.813 8.57471 15.6138 8.57471 15.3232L8.57471 6.44971C8.57471 6.15918 8.35059 5.95996 8.03516 5.95996C7.71973 5.95996 7.50391 6.15918 7.50391 6.44971L7.50391 15.3232C7.50391 15.6138 7.71973 15.813 8.03516 15.813ZM10.5005 15.813C10.7993 15.813 11.0068 15.6221 11.0151 15.3232L11.2642 6.44971C11.2725 6.15918 11.0649 5.95996 10.7495 5.95996C10.4507 5.95996 10.2432 6.15088 10.2349 6.44971L9.98584 15.3232C9.97754 15.6138 10.1851 15.813 10.5005 15.813ZM4.39111 3.79346L5.71094 3.79346L5.71094 2.01709C5.71094 1.54395 6.04297 1.23682 6.54102 1.23682L9.5127 1.23682C10.0107 1.23682 10.3428 1.54395 10.3428 2.01709L10.3428 3.79346L11.6626 3.79346L11.6626 1.93408C11.6626 0.730469 10.8823 0 9.604 0L6.44971 0C5.17139 0 4.39111 0.730469 4.39111 1.93408ZM0.622559 4.45752L15.4561 4.45752C15.7964 4.45752 16.0703 4.16699 16.0703 3.82666C16.0703 3.48633 15.7964 3.2041 15.4561 3.2041L0.622559 3.2041C0.290527 3.2041 0 3.48633 0 3.82666C0 4.17529 0.290527 4.45752 0.622559 4.45752ZM4.2334 18.4858L11.8452 18.4858C13.0322 18.4858 13.8291 17.7139 13.8872 16.5269L14.4683 4.2998L13.1318 4.2998L12.5757 16.3857C12.5591 16.8838 12.2021 17.2324 11.7124 17.2324L4.34961 17.2324C3.87646 17.2324 3.51953 16.8755 3.49463 16.3857L2.90527 4.2998L1.60205 4.2998L2.19141 16.5352C2.24951 17.7222 3.02979 18.4858 4.2334 18.4858Z" fill="black" fill-opacity="0.85"/>
 </g>
</svg>
