<?xml version="1.0" encoding="UTF-8"?>
<!--Generator: Apple Native CoreSVG 341-->
<!DOCTYPE svg
PUBLIC "-//W3C//DTD SVG 1.1//EN"
       "http://www.w3.org/Graphics/SVG/1.1/DTD/svg11.dtd">
<svg version="1.1" xmlns="http://www.w3.org/2000/svg" xmlns:xlink="http://www.w3.org/1999/xlink" viewBox="0 0 19.9468 14.186">
 <g>
  <rect height="14.186" opacity="0" width="19.9468" x="0" y="0"/>
  <path d="M2.60645 14.186L16.9668 14.186C18.71 14.186 19.5732 13.3228 19.5732 11.6128L19.5732 7.03076C19.5732 6.28369 19.457 5.93506 19.1001 5.45361L16.2363 1.57715C15.3315 0.340332 14.8335 0.0166016 13.356 0.0166016L6.21729 0.0166016C4.73975 0.0166016 4.25 0.340332 3.34521 1.57715L0.473145 5.45361C0.124512 5.93506 0 6.28369 0 7.03076L0 11.6128C0 13.3311 0.871582 14.186 2.60645 14.186ZM9.78662 9.37988C8.5415 9.37988 7.74463 8.30078 7.74463 7.27979L7.74463 7.25488C7.74463 6.88135 7.52051 6.53271 7.05566 6.53271L1.76807 6.53271C1.49414 6.53271 1.43604 6.30029 1.56885 6.11768L4.64014 1.90088C5.02197 1.36963 5.51172 1.17871 6.11768 1.17871L13.4556 1.17871C14.0615 1.17871 14.5513 1.36963 14.9331 1.90088L18.0044 6.11768C18.1289 6.30029 18.0791 6.53271 17.8052 6.53271L12.5176 6.53271C12.0527 6.53271 11.8369 6.88135 11.8369 7.25488L11.8369 7.27979C11.8369 8.30078 11.04 9.37988 9.78662 9.37988Z" fill="black" fill-opacity="0.85"/>
 </g>
</svg>
