<?xml version="1.0" encoding="UTF-8"?>
<!--Generator: Apple Native CoreSVG 341-->
<!DOCTYPE svg
PUBLIC "-//W3C//DTD SVG 1.1//EN"
       "http://www.w3.org/Graphics/SVG/1.1/DTD/svg11.dtd">
<svg version="1.1" xmlns="http://www.w3.org/2000/svg" xmlns:xlink="http://www.w3.org/1999/xlink" viewBox="0 0 19.9468 14.186">
 <g>
  <rect height="14.186" opacity="0" width="19.9468" x="0" y="0"/>
  <path d="M2.60645 14.186L16.9668 14.186C18.71 14.186 19.5732 13.3228 19.5732 11.6128L19.5732 6.69873C19.5732 5.95166 19.4736 5.57812 19.1001 5.12158L16.2363 1.57715C15.2651 0.381836 14.8335 0.0166016 13.356 0.0166016L6.21729 0.0166016C4.73975 0.0166016 4.31641 0.381836 3.34521 1.57715L0.473145 5.12158C0.10791 5.57812 0 5.95166 0 6.69873L0 11.6128C0 13.3311 0.871582 14.186 2.60645 14.186ZM1.75146 6.20068C1.47754 6.20068 1.41943 5.95996 1.56055 5.78564L4.64014 1.90088C5.04688 1.38623 5.51172 1.17871 6.11768 1.17871L13.4556 1.17871C14.0615 1.17871 14.5264 1.38623 14.9331 1.90088L18.021 5.78564C18.1538 5.95996 18.104 6.20068 17.8301 6.20068L12.3516 6.20068C11.9199 6.20068 11.7207 6.52441 11.7207 6.87305L11.7207 6.89795C11.7207 7.86084 10.9653 8.88184 9.78662 8.88184C8.61621 8.88184 7.86084 7.86084 7.86084 6.89795L7.86084 6.87305C7.86084 6.52441 7.65332 6.20068 7.22168 6.20068ZM2.62305 12.8496C1.79297 12.8496 1.33643 12.4097 1.33643 11.5464L1.33643 7.4126L6.59912 7.4126C6.79834 8.96484 8.10156 10.1104 9.78662 10.1104C11.4717 10.1104 12.7749 8.95654 12.9741 7.4126L18.2368 7.4126L18.2368 11.5464C18.2368 12.4097 17.772 12.8496 16.9502 12.8496Z" fill="black" fill-opacity="0.85"/>
 </g>
</svg>
