<?xml version="1.0" encoding="UTF-8"?>
<!--Generator: Apple Native CoreSVG 341-->
<!DOCTYPE svg
PUBLIC "-//W3C//DTD SVG 1.1//EN"
       "http://www.w3.org/Graphics/SVG/1.1/DTD/svg11.dtd">
<svg version="1.1" xmlns="http://www.w3.org/2000/svg" xmlns:xlink="http://www.w3.org/1999/xlink" viewBox="0 0 11.5337 6.72217">
 <g>
  <rect height="6.72217" opacity="0" width="11.5337" x="0" y="0"/>
  <path d="M0.171387 5.21777C0.0634766 5.31934 0 5.46533 0 5.63037C0 5.96045 0.247559 6.20801 0.577637 6.20801C0.742676 6.20801 0.89502 6.15088 0.990234 6.04297L5.85254 1.0791L5.17334 1.0791L10.0356 6.04297C10.1372 6.15088 10.2896 6.20801 10.4482 6.20801C10.7783 6.20801 11.0259 5.96045 11.0259 5.63037C11.0259 5.46533 10.9624 5.31934 10.8545 5.21777L5.94141 0.19043C5.8335 0.0698242 5.6748 0 5.51611 0C5.35107 0 5.19873 0.0698242 5.08447 0.19043Z" fill="black" fill-opacity="0.85"/>
 </g>
</svg>
