<?xml version="1.0" encoding="UTF-8"?>
<!--Generator: Apple Native CoreSVG 341-->
<!DOCTYPE svg
PUBLIC "-//W3C//DTD SVG 1.1//EN"
       "http://www.w3.org/Graphics/SVG/1.1/DTD/svg11.dtd">
<svg version="1.1" xmlns="http://www.w3.org/2000/svg" xmlns:xlink="http://www.w3.org/1999/xlink" viewBox="0 0 7.3252 11.0259">
 <g>
  <rect height="11.0259" opacity="0" width="7.3252" x="0" y="0"/>
  <path d="M7.3252 5.50977C7.3252 5.35107 7.26172 5.20508 7.14111 5.09082L2.11377 0.165039C1.99951 0.0571289 1.85986 0 1.69482 0C1.37109 0 1.11719 0.247559 1.11719 0.577637C1.11719 0.736328 1.18066 0.882324 1.28223 0.990234L5.90332 5.50977L1.28223 10.0293C1.18066 10.1372 1.11719 10.2769 1.11719 10.4419C1.11719 10.772 1.37109 11.0195 1.69482 11.0195C1.85986 11.0195 1.99951 10.9624 2.11377 10.8481L7.14111 5.92871C7.26172 5.80811 7.3252 5.66846 7.3252 5.50977Z" fill="black" fill-opacity="0.85"/>
 </g>
</svg>
