<?xml version="1.0" encoding="UTF-8"?>
<!--Generator: Apple Native CoreSVG 341-->
<!DOCTYPE svg
PUBLIC "-//W3C//DTD SVG 1.1//EN"
       "http://www.w3.org/Graphics/SVG/1.1/DTD/svg11.dtd">
<svg version="1.1" xmlns="http://www.w3.org/2000/svg" xmlns:xlink="http://www.w3.org/1999/xlink" viewBox="0 0 11.5337 6.76025">
 <g>
  <rect height="6.76025" opacity="0" width="11.5337" x="0" y="0"/>
  <path d="M5.51611 6.76025C5.6748 6.76025 5.8335 6.69678 5.94141 6.57617L10.8545 1.54248C10.9624 1.43457 11.0259 1.29492 11.0259 1.13623C11.0259 0.806152 10.7783 0.552246 10.4482 0.552246C10.2896 0.552246 10.1436 0.615723 10.0356 0.717285L5.17334 5.6875L5.85254 5.6875L0.990234 0.717285C0.888672 0.615723 0.742676 0.552246 0.577637 0.552246C0.247559 0.552246 0 0.806152 0 1.13623C0 1.29492 0.0634766 1.43457 0.171387 1.54883L5.08447 6.57617C5.20508 6.69678 5.35107 6.76025 5.51611 6.76025Z" fill="black" fill-opacity="0.85"/>
 </g>
</svg>
