<?xml version="1.0" encoding="UTF-8"?>
<!--Generator: Apple Native CoreSVG 341-->
<!DOCTYPE svg
PUBLIC "-//W3C//DTD SVG 1.1//EN"
       "http://www.w3.org/Graphics/SVG/1.1/DTD/svg11.dtd">
<svg version="1.1" xmlns="http://www.w3.org/2000/svg" xmlns:xlink="http://www.w3.org/1999/xlink" viewBox="0 0 19.9468 15.2817">
 <g>
  <rect height="15.2817" opacity="0" width="19.9468" x="0" y="0"/>
  <path d="M11.9697 14.2109L13.2729 14.2109L13.2729 1.0957L11.9697 1.0957ZM3.50293 15.2817L16.2778 15.2817C18.3696 15.2817 19.5732 14.02 19.5732 11.7788L19.5732 3.51123C19.5732 1.27002 18.3696 0 16.2778 0L3.50293 0C1.27002 0 0 1.27002 0 3.51123L0 11.7788C0 14.02 1.27002 15.2817 3.50293 15.2817ZM3.51123 13.9453C2.1333 13.9453 1.33643 13.1567 1.33643 11.7788L1.33643 3.51123C1.33643 2.1333 2.1333 1.33643 3.51123 1.33643L16.062 1.33643C17.4399 1.33643 18.2368 2.1333 18.2368 3.51123L18.2368 11.7788C18.2368 13.1567 17.4399 13.9453 16.062 13.9453ZM14.8667 4.42432L16.6431 4.42432C16.9004 4.42432 17.1162 4.2002 17.1162 3.95947C17.1162 3.71045 16.9004 3.49463 16.6431 3.49463L14.8667 3.49463C14.6177 3.49463 14.3936 3.71045 14.3936 3.95947C14.3936 4.2002 14.6177 4.42432 14.8667 4.42432ZM14.8667 6.57422L16.6431 6.57422C16.9004 6.57422 17.1162 6.3501 17.1162 6.10107C17.1162 5.85205 16.9004 5.64453 16.6431 5.64453L14.8667 5.64453C14.6177 5.64453 14.3936 5.85205 14.3936 6.10107C14.3936 6.3501 14.6177 6.57422 14.8667 6.57422ZM14.8667 8.71582L16.6431 8.71582C16.9004 8.71582 17.1162 8.5083 17.1162 8.25928C17.1162 8.01025 16.9004 7.79443 16.6431 7.79443L14.8667 7.79443C14.6177 7.79443 14.3936 8.01025 14.3936 8.25928C14.3936 8.5083 14.6177 8.71582 14.8667 8.71582Z" fill="black" fill-opacity="0.85"/>
 </g>
</svg>
