<?xml version="1.0" encoding="UTF-8"?>
<!--Generator: Apple Native CoreSVG 341-->
<!DOCTYPE svg
PUBLIC "-//W3C//DTD SVG 1.1//EN"
       "http://www.w3.org/Graphics/SVG/1.1/DTD/svg11.dtd">
<svg version="1.1" xmlns="http://www.w3.org/2000/svg" xmlns:xlink="http://www.w3.org/1999/xlink" viewBox="0 0 20.1958 17.4731">
 <g>
  <rect height="17.4731" opacity="0" width="20.1958" x="0" y="0"/>
  <path d="M7.66992 16.1201L7.66992 11.2393C7.66992 10.8574 7.92725 10.6084 8.30908 10.6084L11.5215 10.6084C11.9116 10.6084 12.1523 10.8574 12.1523 11.2393L12.1523 16.1201ZM2.58984 15.6304C2.58984 16.7842 3.28711 17.4565 4.45752 17.4565L15.373 17.4565C16.5435 17.4565 17.2324 16.7842 17.2324 15.6304L17.2324 9.03955L10.4092 3.32031C10.0938 3.05469 9.72021 3.06299 9.41309 3.32031L2.58984 9.03955ZM0.713867 8.86523C0.946289 8.86523 1.13721 8.74072 1.31152 8.59961L9.62061 1.61865C9.71191 1.54395 9.81982 1.50244 9.91113 1.50244C10.0107 1.50244 10.1104 1.54395 10.2017 1.61865L18.519 8.59961C18.6851 8.74072 18.876 8.86523 19.1084 8.86523C19.5566 8.86523 19.8223 8.5415 19.8223 8.20117C19.8223 8.01025 19.7476 7.81104 19.5566 7.66162L10.9072 0.398438C10.5918 0.132812 10.2515 0 9.91113 0C9.5708 0 9.23047 0.132812 8.91504 0.398438L0.265625 7.66162C0.0830078 7.81104 0 8.01025 0 8.20117C0 8.5415 0.265625 8.86523 0.713867 8.86523ZM15.3149 4.45752L17.3984 6.21729L17.3984 2.47363C17.3984 2.1084 17.166 1.87598 16.8008 1.87598L15.9126 1.87598C15.5557 1.87598 15.3149 2.1084 15.3149 2.47363Z" fill="black" fill-opacity="0.85"/>
 </g>
</svg>
