<?xml version="1.0" encoding="UTF-8"?>
<!--Generator: Apple Native CoreSVG 341-->
<!DOCTYPE svg
PUBLIC "-//W3C//DTD SVG 1.1//EN"
       "http://www.w3.org/Graphics/SVG/1.1/DTD/svg11.dtd">
<svg version="1.1" xmlns="http://www.w3.org/2000/svg" xmlns:xlink="http://www.w3.org/1999/xlink" viewBox="0 0 20.1958 17.4731">
 <g>
  <rect height="17.4731" opacity="0" width="20.1958" x="0" y="0"/>
  <path d="M7.50391 16.6016L12.3184 16.6016L12.3184 11.2393C12.3184 10.8574 12.0693 10.6084 11.6875 10.6084L8.14307 10.6084C7.76123 10.6084 7.50391 10.8574 7.50391 11.2393ZM0.713867 8.86523C0.946289 8.86523 1.13721 8.74072 1.31152 8.59961L9.62061 1.61865C9.71191 1.54395 9.81982 1.50244 9.91113 1.50244C10.0107 1.50244 10.1104 1.54395 10.2017 1.61865L18.519 8.59961C18.6851 8.74072 18.876 8.86523 19.1084 8.86523C19.5566 8.86523 19.8223 8.5415 19.8223 8.20117C19.8223 8.01025 19.7476 7.81104 19.5566 7.66162L10.9072 0.398438C10.5918 0.132812 10.2515 0 9.91113 0C9.5708 0 9.23047 0.132812 8.91504 0.398438L0.265625 7.66162C0.0830078 7.81104 0 8.01025 0 8.20117C0 8.5415 0.265625 8.86523 0.713867 8.86523ZM15.3149 4.45752L17.3984 6.21729L17.3984 2.47363C17.3984 2.1084 17.166 1.87598 16.8008 1.87598L15.9126 1.87598C15.5557 1.87598 15.3149 2.1084 15.3149 2.47363ZM4.2998 17.4565L15.5308 17.4565C16.7095 17.4565 17.3984 16.7842 17.3984 15.6221L17.3984 6.4248L16.062 5.52002L16.062 15.29C16.062 15.8296 15.7715 16.1201 15.2485 16.1201L4.58203 16.1201C4.05078 16.1201 3.76025 15.8296 3.76025 15.29L3.76025 5.52832L2.42383 6.4248L2.42383 15.6221C2.42383 16.7925 3.11279 17.4565 4.2998 17.4565Z" fill="black" fill-opacity="0.85"/>
 </g>
</svg>
