<?xml version="1.0" encoding="UTF-8"?>
<!--Generator: Apple Native CoreSVG 341-->
<!DOCTYPE svg
PUBLIC "-//W3C//DTD SVG 1.1//EN"
       "http://www.w3.org/Graphics/SVG/1.1/DTD/svg11.dtd">
<svg version="1.1" xmlns="http://www.w3.org/2000/svg" xmlns:xlink="http://www.w3.org/1999/xlink" viewBox="0 0 19.2969 8.58838">
 <g>
  <rect height="8.58838" opacity="0" width="19.2969" x="0" y="0"/>
  <path d="M3.3833 8.58838L13.3618 8.58838C14.4473 8.58838 15.3613 8.48682 16.0088 7.83936C16.6562 7.19189 16.7515 6.29053 16.7515 5.20508L16.7515 3.3833C16.7515 2.29785 16.6562 1.39648 16.0088 0.749023C15.3613 0.101562 14.4473 0 13.3618 0L3.37061 0C2.3042 0 1.39014 0.101562 0.742676 0.749023C0.0952148 1.39648 0 2.3042 0 3.36426L0 5.20508C0 6.29053 0.0952148 7.19189 0.742676 7.83936C1.39014 8.48682 2.3042 8.58838 3.3833 8.58838ZM3.21191 7.56641C2.55811 7.56641 1.87256 7.47754 1.48535 7.09668C1.10449 6.70947 1.02197 6.03027 1.02197 5.37646L1.02197 3.22461C1.02197 2.55811 1.10449 1.87891 1.48535 1.4917C1.87256 1.10449 2.56445 1.02197 3.23096 1.02197L13.5396 1.02197C14.1934 1.02197 14.8789 1.11084 15.2598 1.4917C15.647 1.87891 15.7295 2.55176 15.7295 3.20557L15.7295 5.37646C15.7295 6.03027 15.647 6.70947 15.2598 7.09668C14.8789 7.47754 14.1934 7.56641 13.5396 7.56641ZM17.6147 5.93506C18.1162 5.90332 18.7891 5.26221 18.7891 4.29102C18.7891 3.32617 18.1162 2.68506 17.6147 2.65332Z" fill="black" fill-opacity="0.85"/>
 </g>
</svg>
