<?xml version="1.0" encoding="UTF-8"?>
<!--Generator: Apple Native CoreSVG 341-->
<!DOCTYPE svg
PUBLIC "-//W3C//DTD SVG 1.1//EN"
       "http://www.w3.org/Graphics/SVG/1.1/DTD/svg11.dtd">
<svg version="1.1" xmlns="http://www.w3.org/2000/svg" xmlns:xlink="http://www.w3.org/1999/xlink" viewBox="0 0 12.4858 13.1206">
 <g>
  <rect height="13.1206" opacity="0" width="12.4858" x="0" y="0"/>
  <path d="M0 10.0483C0 10.5117 0.355469 10.8164 0.958496 10.8164L3.63721 10.8164C3.68799 12.0415 4.64648 13.1143 5.98584 13.1143C7.33154 13.1143 8.29004 12.0479 8.34082 10.8164L11.0195 10.8164C11.6162 10.8164 11.978 10.5117 11.978 10.0483C11.978 9.41357 11.3306 8.84229 10.7847 8.27734C10.3657 7.83936 10.2515 6.93799 10.2007 6.20801C10.1562 3.70703 9.50879 2.09473 7.82031 1.48535C7.60449 0.653809 6.92529 0 5.98584 0C5.05273 0 4.36719 0.653809 4.15771 1.48535C2.46924 2.09473 1.82178 3.70703 1.77734 6.20801C1.72656 6.93799 1.6123 7.83936 1.19336 8.27734C0.641113 8.84229 0 9.41357 0 10.0483ZM1.23145 9.85791L1.23145 9.78174C1.3457 9.59766 1.72656 9.22314 2.05664 8.85498C2.51367 8.34717 2.72949 7.52832 2.78662 6.29053C2.8374 3.5166 3.6626 2.63428 4.74805 2.33594C4.90674 2.29785 4.99561 2.22168 5.00195 2.05664C5.021 1.39648 5.40186 0.933105 5.98584 0.933105C6.57617 0.933105 6.95068 1.39648 6.97607 2.05664C6.98242 2.22168 7.06494 2.29785 7.22363 2.33594C8.31543 2.63428 9.14062 3.5166 9.19141 6.29053C9.24854 7.52832 9.46436 8.34717 9.91504 8.85498C10.2515 9.22314 10.626 9.59766 10.7402 9.78174L10.7402 9.85791ZM4.62744 10.8164L7.35059 10.8164C7.2998 11.6797 6.75391 12.2192 5.98584 12.2192C5.22412 12.2192 4.67188 11.6797 4.62744 10.8164Z" fill="black" fill-opacity="0.85"/>
 </g>
</svg>
