<?xml version="1.0" encoding="UTF-8"?>
<!--Generator: Apple Native CoreSVG 341-->
<!DOCTYPE svg
PUBLIC "-//W3C//DTD SVG 1.1//EN"
       "http://www.w3.org/Graphics/SVG/1.1/DTD/svg11.dtd">
<svg version="1.1" xmlns="http://www.w3.org/2000/svg" xmlns:xlink="http://www.w3.org/1999/xlink" viewBox="0 0 16.917 15.2983">
 <g>
  <rect height="15.2983" opacity="0" width="16.917" x="0" y="0"/>
  <path d="M2.60645 15.2983L13.9453 15.2983C15.6802 15.2983 16.5435 14.4351 16.5435 12.7251L16.5435 2.58984C16.5435 0.879883 15.6802 0.0166016 13.9453 0.0166016L2.60645 0.0166016C0.871582 0.0166016 0 0.871582 0 2.58984L0 12.7251C0 14.4434 0.871582 15.2983 2.60645 15.2983ZM2.48193 13.9619C1.74316 13.9619 1.33643 13.5718 1.33643 12.7998L1.33643 4.97217C1.33643 4.2085 1.74316 3.81006 2.48193 3.81006L14.0532 3.81006C14.792 3.81006 15.207 4.2085 15.207 4.97217L15.207 12.7998C15.207 13.5718 14.792 13.9619 14.0532 13.9619ZM6.65723 6.79004L7.14697 6.79004C7.4375 6.79004 7.52881 6.70703 7.52881 6.4165L7.52881 5.92676C7.52881 5.63623 7.4375 5.54492 7.14697 5.54492L6.65723 5.54492C6.3667 5.54492 6.26709 5.63623 6.26709 5.92676L6.26709 6.4165C6.26709 6.70703 6.3667 6.79004 6.65723 6.79004ZM9.41309 6.79004L9.90283 6.79004C10.1934 6.79004 10.293 6.70703 10.293 6.4165L10.293 5.92676C10.293 5.63623 10.1934 5.54492 9.90283 5.54492L9.41309 5.54492C9.12256 5.54492 9.02295 5.63623 9.02295 5.92676L9.02295 6.4165C9.02295 6.70703 9.12256 6.79004 9.41309 6.79004ZM12.1689 6.79004L12.6587 6.79004C12.9492 6.79004 13.0488 6.70703 13.0488 6.4165L13.0488 5.92676C13.0488 5.63623 12.9492 5.54492 12.6587 5.54492L12.1689 5.54492C11.8784 5.54492 11.7871 5.63623 11.7871 5.92676L11.7871 6.4165C11.7871 6.70703 11.8784 6.79004 12.1689 6.79004ZM3.90137 9.50439L4.38281 9.50439C4.68164 9.50439 4.77295 9.42139 4.77295 9.13086L4.77295 8.64111C4.77295 8.35059 4.68164 8.26758 4.38281 8.26758L3.90137 8.26758C3.60254 8.26758 3.51123 8.35059 3.51123 8.64111L3.51123 9.13086C3.51123 9.42139 3.60254 9.50439 3.90137 9.50439ZM6.65723 9.50439L7.14697 9.50439C7.4375 9.50439 7.52881 9.42139 7.52881 9.13086L7.52881 8.64111C7.52881 8.35059 7.4375 8.26758 7.14697 8.26758L6.65723 8.26758C6.3667 8.26758 6.26709 8.35059 6.26709 8.64111L6.26709 9.13086C6.26709 9.42139 6.3667 9.50439 6.65723 9.50439ZM9.41309 9.50439L9.90283 9.50439C10.1934 9.50439 10.293 9.42139 10.293 9.13086L10.293 8.64111C10.293 8.35059 10.1934 8.26758 9.90283 8.26758L9.41309 8.26758C9.12256 8.26758 9.02295 8.35059 9.02295 8.64111L9.02295 9.13086C9.02295 9.42139 9.12256 9.50439 9.41309 9.50439ZM12.1689 9.50439L12.6587 9.50439C12.9492 9.50439 13.0488 9.42139 13.0488 9.13086L13.0488 8.64111C13.0488 8.35059 12.9492 8.26758 12.6587 8.26758L12.1689 8.26758C11.8784 8.26758 11.7871 8.35059 11.7871 8.64111L11.7871 9.13086C11.7871 9.42139 11.8784 9.50439 12.1689 9.50439ZM3.90137 12.2271L4.38281 12.2271C4.68164 12.2271 4.77295 12.1357 4.77295 11.8452L4.77295 11.3555C4.77295 11.0649 4.68164 10.9819 4.38281 10.9819L3.90137 10.9819C3.60254 10.9819 3.51123 11.0649 3.51123 11.3555L3.51123 11.8452C3.51123 12.1357 3.60254 12.2271 3.90137 12.2271ZM6.65723 12.2271L7.14697 12.2271C7.4375 12.2271 7.52881 12.1357 7.52881 11.8452L7.52881 11.3555C7.52881 11.0649 7.4375 10.9819 7.14697 10.9819L6.65723 10.9819C6.3667 10.9819 6.26709 11.0649 6.26709 11.3555L6.26709 11.8452C6.26709 12.1357 6.3667 12.2271 6.65723 12.2271ZM9.41309 12.2271L9.90283 12.2271C10.1934 12.2271 10.293 12.1357 10.293 11.8452L10.293 11.3555C10.293 11.0649 10.1934 10.9819 9.90283 10.9819L9.41309 10.9819C9.12256 10.9819 9.02295 11.0649 9.02295 11.3555L9.02295 11.8452C9.02295 12.1357 9.12256 12.2271 9.41309 12.2271Z" fill="#ff3b30"/>
 </g>
</svg>
