<?xml version="1.0" encoding="UTF-8"?>
<!--Generator: Apple Native CoreSVG 341-->
<!DOCTYPE svg
PUBLIC "-//W3C//DTD SVG 1.1//EN"
       "http://www.w3.org/Graphics/SVG/1.1/DTD/svg11.dtd">
<svg version="1.1" xmlns="http://www.w3.org/2000/svg" xmlns:xlink="http://www.w3.org/1999/xlink" viewBox="0 0 13.457 12.9556">
 <g>
  <rect height="12.9556" opacity="0" width="13.457" x="0" y="0"/>
  <path d="M6.47461 12.9492C10.0483 12.9492 12.9492 10.0483 12.9492 6.47461C12.9492 2.90088 10.0483 0 6.47461 0C2.90088 0 0 2.90088 0 6.47461C0 10.0483 2.90088 12.9492 6.47461 12.9492ZM6.47461 11.8701C3.49121 11.8701 1.0791 9.45801 1.0791 6.47461C1.0791 3.49121 3.49121 1.0791 6.47461 1.0791C9.45801 1.0791 11.8701 3.49121 11.8701 6.47461C11.8701 9.45801 9.45801 11.8701 6.47461 11.8701Z" fill="black" fill-opacity="0.85"/>
  <path d="M3.15479 7.16016L6.46826 7.16016C6.71582 7.16016 6.9126 6.96973 6.9126 6.71582L6.9126 2.4375C6.9126 2.18994 6.71582 1.99951 6.46826 1.99951C6.2207 1.99951 6.03027 2.18994 6.03027 2.4375L6.03027 6.27783L3.15479 6.27783C2.90088 6.27783 2.71045 6.46826 2.71045 6.71582C2.71045 6.96973 2.90088 7.16016 3.15479 7.16016Z" fill="black" fill-opacity="0.85"/>
 </g>
</svg>
