<?xml version="1.0" encoding="UTF-8"?>
<!--Generator: Apple Native CoreSVG 341-->
<!DOCTYPE svg
PUBLIC "-//W3C//DTD SVG 1.1//EN"
       "http://www.w3.org/Graphics/SVG/1.1/DTD/svg11.dtd">
<svg version="1.1" xmlns="http://www.w3.org/2000/svg" xmlns:xlink="http://www.w3.org/1999/xlink" viewBox="0 0 13.2349 12.8277">
 <g>
  <rect height="12.8277" opacity="0" width="13.2349" x="0" y="0"/>
  <path d="M6.65234 12.8154C9.41992 12.8154 11.6606 11.146 12.6572 9.01955C12.873 8.57521 12.5874 8.27687 12.1621 8.41017C11.6924 8.56886 10.918 8.72121 10.2007 8.72121C6.39209 8.72121 4.2085 6.53761 4.2085 2.72267C4.2085 2.00539 4.36719 1.19923 4.5957 0.621598C4.77979 0.151871 4.45605-0.133773 4.00537 0.0630041C1.72656 1.05324 0 3.38283 0 6.1631C0 9.83839 2.9834 12.8154 6.65234 12.8154ZM6.65234 11.8316C3.5293 11.8316 0.983887 9.2925 0.983887 6.1631C0.983887 4.20802 2.01221 2.56398 3.35156 1.59279C3.26904 1.9673 3.22461 2.32912 3.22461 2.72267C3.22461 7.08351 5.84619 9.70509 10.2007 9.70509C10.5371 9.70509 10.8545 9.66066 11.1211 9.60988C10.1372 10.9175 8.53125 11.8316 6.65234 11.8316Z" fill="black" fill-opacity="0.85"/>
 </g>
</svg>
