<?xml version="1.0" encoding="UTF-8"?>
<!--Generator: Apple Native CoreSVG 341-->
<!DOCTYPE svg
PUBLIC "-//W3C//DTD SVG 1.1//EN"
       "http://www.w3.org/Graphics/SVG/1.1/DTD/svg11.dtd">
<svg version="1.1" xmlns="http://www.w3.org/2000/svg" xmlns:xlink="http://www.w3.org/1999/xlink" viewBox="0 0 14.2378 13.7808">
 <g>
  <rect height="13.7808" opacity="0" width="14.2378" x="0" y="0"/>
  <path d="M6.86816 2.46924C7.1665 2.46924 7.41406 2.22168 7.41406 1.91699L7.41406 0.552246C7.41406 0.247559 7.1665 0 6.86816 0C6.56348 0 6.31592 0.247559 6.31592 0.552246L6.31592 1.91699C6.31592 2.22168 6.56348 2.46924 6.86816 2.46924ZM9.97852 3.77051C10.1943 3.97998 10.5435 3.98633 10.7593 3.77051L11.7305 2.79932C11.9399 2.58984 11.9399 2.23438 11.7305 2.01855C11.521 1.80908 11.1655 1.80908 10.9561 2.01855L9.97852 2.99609C9.76904 3.20557 9.76904 3.56104 9.97852 3.77051ZM11.2671 6.88721C11.2671 7.18555 11.521 7.43311 11.8193 7.43311L13.1841 7.43311C13.4824 7.43311 13.73 7.18555 13.73 6.88721C13.73 6.58887 13.4824 6.33496 13.1841 6.33496L11.8193 6.33496C11.521 6.33496 11.2671 6.58887 11.2671 6.88721ZM9.97852 10.0039C9.76904 10.2197 9.76904 10.5688 9.97852 10.7783L10.9561 11.7622C11.1655 11.9717 11.521 11.959 11.7305 11.7559C11.9399 11.54 11.9399 11.1909 11.7305 10.9814L10.7529 10.0039C10.5435 9.79443 10.1943 9.80078 9.97852 10.0039ZM6.86816 11.3052C6.56348 11.3052 6.31592 11.5527 6.31592 11.8511L6.31592 13.2222C6.31592 13.5205 6.56348 13.7681 6.86816 13.7681C7.1665 13.7681 7.41406 13.5205 7.41406 13.2222L7.41406 11.8511C7.41406 11.5527 7.1665 11.3052 6.86816 11.3052ZM3.75146 10.0039C3.53564 9.80078 3.18018 9.79443 2.9707 10.0039L1.99951 10.9751C1.79004 11.1846 1.79004 11.5337 1.99316 11.7495C2.20264 11.9526 2.56445 11.9653 2.77393 11.7559L3.74512 10.7783C3.95459 10.5688 3.95459 10.2197 3.75146 10.0039ZM2.46289 6.88721C2.46289 6.58887 2.20898 6.33496 1.91064 6.33496L0.545898 6.33496C0.247559 6.33496 0 6.58887 0 6.88721C0 7.18555 0.247559 7.43311 0.545898 7.43311L1.91064 7.43311C2.20898 7.43311 2.46289 7.18555 2.46289 6.88721ZM3.74512 3.77051C3.95459 3.56738 3.95459 3.19922 3.75146 2.99609L2.78027 2.01855C2.57715 1.81543 2.21533 1.80908 2.00586 2.01855C1.79639 2.23438 1.79639 2.58984 1.99951 2.79297L2.9707 3.77051C3.18018 3.97998 3.5293 3.97998 3.74512 3.77051Z" fill="black" fill-opacity="0.85"/>
  <path d="M6.86816 10.1182C8.65186 10.1182 10.0991 8.6709 10.0991 6.88721C10.0991 5.10352 8.65186 3.6499 6.86816 3.6499C5.08447 3.6499 3.63086 5.10352 3.63086 6.88721C3.63086 8.6709 5.08447 10.1182 6.86816 10.1182ZM6.86816 9.15332C5.61133 9.15332 4.5957 8.14404 4.5957 6.88721C4.5957 5.63037 5.61133 4.61475 6.86816 4.61475C8.125 4.61475 9.13428 5.63037 9.13428 6.88721C9.13428 8.14404 8.125 9.15332 6.86816 9.15332Z" fill="black" fill-opacity="0.85"/>
 </g>
</svg>
