<?xml version="1.0" encoding="UTF-8"?>
<!--Generator: Apple Native CoreSVG 341-->
<!DOCTYPE svg
PUBLIC "-//W3C//DTD SVG 1.1//EN"
       "http://www.w3.org/Graphics/SVG/1.1/DTD/svg11.dtd">
<svg version="1.1" xmlns="http://www.w3.org/2000/svg" xmlns:xlink="http://www.w3.org/1999/xlink" viewBox="0 0 18.3115 15.2983">
 <g>
  <rect height="15.2983" opacity="0" width="18.3115" x="0" y="0"/>
  <path d="M1.90918 15.2983L16.0288 15.2983C17.2988 15.2983 17.938 14.6841 17.938 13.4058L17.938 10.2266C17.938 8.96484 17.2988 8.34229 16.0288 8.34229L1.90918 8.34229C0.63916 8.34229 0 8.96484 0 10.2266L0 13.4058C0 14.6841 0.63916 15.2983 1.90918 15.2983ZM2.00879 14.0449C1.51904 14.0449 1.25342 13.7876 1.25342 13.2729L1.25342 10.3677C1.25342 9.84473 1.51904 9.5957 2.00879 9.5957L15.9209 9.5957C16.4189 9.5957 16.6846 9.84473 16.6846 10.3677L16.6846 13.2729C16.6846 13.7876 16.4189 14.0449 15.9209 14.0449Z" fill="black" fill-opacity="0.85"/>
  <path d="M1.90918 6.97266L16.0288 6.97266C17.2988 6.97266 17.938 6.3501 17.938 5.07178L17.938 1.90088C17.938 0.630859 17.2988 0.0166016 16.0288 0.0166016L1.90918 0.0166016C0.63916 0.0166016 0 0.630859 0 1.90088L0 5.07178C0 6.3501 0.63916 6.97266 1.90918 6.97266ZM2.00879 5.71924C1.51904 5.71924 1.25342 5.46191 1.25342 4.94727L1.25342 2.04199C1.25342 1.51904 1.51904 1.27002 2.00879 1.27002L15.9209 1.27002C16.4189 1.27002 16.6846 1.51904 16.6846 2.04199L16.6846 4.94727C16.6846 5.46191 16.4189 5.71924 15.9209 5.71924Z" fill="black" fill-opacity="0.85"/>
 </g>
</svg>
