<?xml version="1.0" encoding="UTF-8"?>
<!--Generator: Apple Native CoreSVG 341-->
<!DOCTYPE svg
PUBLIC "-//W3C//DTD SVG 1.1//EN"
       "http://www.w3.org/Graphics/SVG/1.1/DTD/svg11.dtd">
<svg version="1.1" xmlns="http://www.w3.org/2000/svg" xmlns:xlink="http://www.w3.org/1999/xlink" viewBox="0 0 15.6553 15.2817">
 <g>
  <rect height="15.2817" opacity="0" width="15.6553" x="0" y="0"/>
  <path d="M9.91943 15.2817L13.6963 15.2817C14.7505 15.2817 15.2817 14.7588 15.2817 13.6631L15.2817 9.95264C15.2817 8.85693 14.7505 8.33398 13.6963 8.33398L9.91943 8.33398C8.85693 8.33398 8.32568 8.85693 8.32568 9.95264L8.32568 13.6631C8.32568 14.7588 8.85693 15.2817 9.91943 15.2817ZM9.93604 14.1113C9.63721 14.1113 9.49609 13.9619 9.49609 13.6714L9.49609 9.95264C9.49609 9.65381 9.63721 9.50439 9.93604 9.50439L13.6797 9.50439C13.9702 9.50439 14.1113 9.65381 14.1113 9.95264L14.1113 13.6714C14.1113 13.9619 13.9702 14.1113 13.6797 14.1113Z" fill="black" fill-opacity="0.85"/>
  <path d="M1.58545 15.2817L5.37061 15.2817C6.4248 15.2817 6.95605 14.7588 6.95605 13.6631L6.95605 9.95264C6.95605 8.85693 6.4248 8.33398 5.37061 8.33398L1.58545 8.33398C0.53125 8.33398 0 8.85693 0 9.95264L0 13.6631C0 14.7588 0.53125 15.2817 1.58545 15.2817ZM1.60205 14.1113C1.31152 14.1113 1.17041 13.9619 1.17041 13.6714L1.17041 9.95264C1.17041 9.65381 1.31152 9.50439 1.60205 9.50439L5.3457 9.50439C5.63623 9.50439 5.78564 9.65381 5.78564 9.95264L5.78564 13.6714C5.78564 13.9619 5.63623 14.1113 5.3457 14.1113Z" fill="black" fill-opacity="0.85"/>
  <path d="M9.91943 6.95605L13.6963 6.95605C14.7505 6.95605 15.2817 6.43311 15.2817 5.3374L15.2817 1.61865C15.2817 0.53125 14.7505 0 13.6963 0L9.91943 0C8.85693 0 8.32568 0.53125 8.32568 1.61865L8.32568 5.3374C8.32568 6.43311 8.85693 6.95605 9.91943 6.95605ZM9.93604 5.78564C9.63721 5.78564 9.49609 5.63623 9.49609 5.3291L9.49609 1.61865C9.49609 1.31982 9.63721 1.17041 9.93604 1.17041L13.6797 1.17041C13.9702 1.17041 14.1113 1.31982 14.1113 1.61865L14.1113 5.3291C14.1113 5.63623 13.9702 5.78564 13.6797 5.78564Z" fill="black" fill-opacity="0.85"/>
  <path d="M1.58545 6.95605L5.37061 6.95605C6.4248 6.95605 6.95605 6.43311 6.95605 5.3374L6.95605 1.61865C6.95605 0.53125 6.4248 0 5.37061 0L1.58545 0C0.53125 0 0 0.53125 0 1.61865L0 5.3374C0 6.43311 0.53125 6.95605 1.58545 6.95605ZM1.60205 5.78564C1.31152 5.78564 1.17041 5.63623 1.17041 5.3291L1.17041 1.61865C1.17041 1.31982 1.31152 1.17041 1.60205 1.17041L5.3457 1.17041C5.63623 1.17041 5.78564 1.31982 5.78564 1.61865L5.78564 5.3291C5.78564 5.63623 5.63623 5.78564 5.3457 5.78564Z" fill="black" fill-opacity="0.85"/>
 </g>
</svg>
