<svg width="13" height="16" viewBox="0 0 13 16" fill="none" xmlns="http://www.w3.org/2000/svg">
<path d="M9.28814 3.80449C9.39956 3.80449 9.57201 3.81776 9.80547 3.84429C10.0442 3.86551 10.3148 3.92388 10.6173 4.01939C10.9197 4.11489 11.2275 4.26877 11.5405 4.48101C11.8536 4.69325 12.1428 4.99038 12.4081 5.37241C12.3815 5.38833 12.2807 5.45996 12.1056 5.58731C11.9358 5.71465 11.7422 5.90036 11.5246 6.14443C11.3071 6.3832 11.116 6.6883 10.9516 7.05972C10.7924 7.42583 10.7128 7.86357 10.7128 8.37295C10.7128 8.95661 10.8136 9.45007 11.0152 9.85332C11.2222 10.2566 11.4609 10.5829 11.7315 10.8323C12.0075 11.0817 12.2515 11.2647 12.4638 11.3814C12.6813 11.4929 12.798 11.5512 12.814 11.5565C12.8087 11.5778 12.7689 11.6972 12.6946 11.9147C12.6203 12.1269 12.5036 12.4028 12.3444 12.7424C12.1905 13.0767 11.9889 13.4269 11.7395 13.793C11.5113 14.1167 11.2752 14.4271 11.0312 14.7242C10.7924 15.0214 10.5297 15.2628 10.2432 15.4485C9.962 15.6395 9.64364 15.735 9.28814 15.735C9.01753 15.735 8.78672 15.7032 8.5957 15.6395C8.40469 15.5758 8.22163 15.5015 8.04653 15.4167C7.87674 15.3371 7.68838 15.2654 7.48145 15.2018C7.27451 15.1381 7.01717 15.1062 6.70943 15.1062C6.30617 15.1062 5.96924 15.1593 5.69863 15.2654C5.43334 15.3769 5.1813 15.4856 4.94253 15.5917C4.70376 15.6979 4.42254 15.7509 4.09888 15.7509C3.60542 15.7509 3.17033 15.5546 2.79361 15.162C2.42219 14.7693 2.04015 14.2997 1.64751 13.7532C1.34507 13.3181 1.06916 12.8167 0.819777 12.249C0.570396 11.6812 0.371421 11.079 0.222854 10.4423C0.0742858 9.80557 1.95764e-06 9.16885 1.95764e-06 8.53213C1.95764e-06 7.51338 0.193671 6.65646 0.581008 5.96138C0.968345 5.26629 1.46446 4.741 2.06934 4.3855C2.67422 4.03 3.30298 3.85225 3.95562 3.85225C4.30051 3.85225 4.62417 3.90796 4.92661 4.01939C5.23436 4.13081 5.52088 4.24489 5.78618 4.36162C6.05148 4.47305 6.29291 4.52876 6.51045 4.52876C6.71738 4.52876 6.96146 4.47039 7.24268 4.35366C7.52389 4.23162 7.8343 4.10959 8.17388 3.98755C8.51877 3.86551 8.89019 3.80449 9.28814 3.80449ZM8.73101 2.51514C8.46571 2.8388 8.13143 3.10676 7.72818 3.31899C7.33023 3.53123 6.9535 3.63735 6.598 3.63735C6.52372 3.63735 6.45208 3.6294 6.38311 3.61348C6.3778 3.59225 6.36984 3.55511 6.35923 3.50205C6.35392 3.44899 6.35127 3.39063 6.35127 3.32695C6.35127 2.9237 6.43882 2.53106 6.61392 2.14902C6.78902 1.76699 6.99064 1.44863 7.2188 1.19395C7.50002 0.859669 7.85552 0.581104 8.2853 0.358253C8.7204 0.135401 9.13692 0.0160163 9.53486 9.83141e-05C9.55078 0.0903001 9.55874 0.193767 9.55874 0.310499C9.55874 0.71906 9.4818 1.11701 9.32793 1.50435C9.17406 1.88638 8.97508 2.22331 8.73101 2.51514Z" fill="black"/>
</svg>
