<?xml version="1.0" encoding="UTF-8"?>
<!--Generator: Apple Native CoreSVG 341-->
<!DOCTYPE svg
PUBLIC "-//W3C//DTD SVG 1.1//EN"
       "http://www.w3.org/Graphics/SVG/1.1/DTD/svg11.dtd">
<svg version="1.1" xmlns="http://www.w3.org/2000/svg" xmlns:xlink="http://www.w3.org/1999/xlink" viewBox="0 0 15.0327 19.7808">
 <g>
  <rect height="19.7808" opacity="0" width="15.0327" x="0" y="0"/>
  <path d="M7.32959 17.8301C11.3804 17.8301 14.6592 14.5513 14.6592 10.4922C14.6592 10.127 14.3604 9.82812 13.9951 9.82812C13.6299 9.82812 13.3228 10.127 13.3228 10.4922C13.3228 13.8042 10.6416 16.4854 7.32959 16.4854C4.01758 16.4854 1.33643 13.8042 1.33643 10.4922C1.33643 7.18018 4.01758 4.49902 7.32959 4.49902C8.06836 4.49902 8.77393 4.63184 9.42969 4.87256C9.85303 5.03857 10.3511 4.79785 10.3594 4.2832C10.3677 3.85986 10.0522 3.70215 9.82812 3.61914C9.06445 3.32861 8.21777 3.1709 7.32959 3.1709C3.27881 3.1709 0 6.44971 0 10.5005C0 14.5513 3.27881 17.8301 7.32959 17.8301ZM9.5791 4.16699L6.56592 7.16357C6.4248 7.28809 6.375 7.4541 6.375 7.62842C6.375 8.01025 6.65723 8.30078 7.02246 8.30078C7.22998 8.30078 7.37939 8.22607 7.50391 8.10986L10.9238 4.67334C11.0732 4.52393 11.1396 4.35791 11.1396 4.17529C11.1396 3.99268 11.0649 3.81006 10.9238 3.67725L7.51221 0.20752C7.37939 0.0830078 7.22998 0 7.02246 0C6.65723 0 6.375 0.307129 6.375 0.680664C6.375 0.85498 6.4248 1.0376 6.55762 1.16211Z" fill="black" fill-opacity="0.85"/>
 </g>
</svg>
