<?xml version="1.0" encoding="UTF-8"?>
<!--Generator: Apple Native CoreSVG 341-->
<!DOCTYPE svg
PUBLIC "-//W3C//DTD SVG 1.1//EN"
       "http://www.w3.org/Graphics/SVG/1.1/DTD/svg11.dtd">
<svg version="1.1" xmlns="http://www.w3.org/2000/svg" xmlns:xlink="http://www.w3.org/1999/xlink" viewBox="0 0 18.1372 17.7554">
 <g>
  <rect height="17.7554" opacity="0" width="18.1372" x="0" y="0"/>
  <path d="M8.04346 17.7471L9.72021 17.7471C10.3594 17.7471 10.8574 17.3569 10.9985 16.7427L11.3555 15.1904L11.6211 15.0991L12.9741 15.9292C13.5137 16.2612 14.1362 16.1865 14.5928 15.73L15.7549 14.5762C16.2114 14.1196 16.2861 13.4888 15.9541 12.9575L15.1074 11.6128L15.207 11.3638L16.7593 10.9985C17.3652 10.8574 17.7637 10.3511 17.7637 9.72021L17.7637 8.07666C17.7637 7.4458 17.3735 6.94775 16.7593 6.79834L15.2236 6.4248L15.1157 6.15918L15.9624 4.81445C16.2944 4.2832 16.228 3.66064 15.7632 3.1958L14.6011 2.03369C14.1528 1.58545 13.5303 1.50244 12.9907 1.83447L11.6377 2.66455L11.3555 2.55664L10.9985 1.00439C10.8574 0.390137 10.3594 0 9.72021 0L8.04346 0C7.4043 0 6.90625 0.390137 6.76514 1.00439L6.3999 2.55664L6.11768 2.66455L4.77295 1.83447C4.2334 1.50244 3.60254 1.58545 3.1543 2.03369L2.00049 3.1958C1.53564 3.66064 1.46094 4.2832 1.80127 4.81445L2.63965 6.15918L2.54004 6.4248L1.00439 6.79834C0.390137 6.94775 0 7.4458 0 8.07666L0 9.72021C0 10.3511 0.398438 10.8574 1.00439 10.9985L2.55664 11.3638L2.64795 11.6128L1.80957 12.9575C1.46924 13.4888 1.55225 14.1196 2.00879 14.5762L3.1626 15.73C3.61914 16.1865 4.25 16.2612 4.78955 15.9292L6.13428 15.0991L6.3999 15.1904L6.76514 16.7427C6.90625 17.3569 7.4043 17.7471 8.04346 17.7471ZM8.17627 16.4521C8.03516 16.4521 7.96045 16.394 7.93555 16.2612L7.4375 14.2026C6.93115 14.0781 6.45801 13.8789 6.10107 13.6548L4.2915 14.7671C4.19189 14.8418 4.07568 14.8335 3.98438 14.7256L3.00488 13.7461C2.91357 13.6548 2.90527 13.5552 2.97168 13.439L4.08398 11.646C3.89307 11.2974 3.67725 10.8242 3.54443 10.3179L1.48584 9.82812C1.35303 9.80322 1.29492 9.72852 1.29492 9.5874L1.29492 8.20117C1.29492 8.05176 1.34473 7.98535 1.48584 7.96045L3.53613 7.4624C3.66895 6.92285 3.91797 6.43311 4.06738 6.12598L2.96338 4.33301C2.88867 4.2085 2.89697 4.10889 2.98828 4.00928L3.97607 3.04639C4.07568 2.94678 4.16699 2.93848 4.2915 3.00488L6.08447 4.09229C6.44141 3.89307 6.94775 3.68555 7.4458 3.54443L7.93555 1.48584C7.96045 1.35303 8.03516 1.29492 8.17627 1.29492L9.5874 1.29492C9.72852 1.29492 9.80322 1.35303 9.81982 1.48584L10.3262 3.56104C10.8408 3.69385 11.2891 3.90137 11.6626 4.10059L13.4639 3.00488C13.5967 2.93848 13.6797 2.94678 13.7876 3.04639L14.7671 4.00928C14.8667 4.10889 14.8667 4.2085 14.792 4.33301L13.688 6.12598C13.8457 6.43311 14.0864 6.92285 14.2192 7.4624L16.2778 7.96045C16.4106 7.98535 16.4688 8.05176 16.4688 8.20117L16.4688 9.5874C16.4688 9.72852 16.4023 9.80322 16.2778 9.82812L14.2109 10.3179C14.0781 10.8242 13.8706 11.2974 13.6714 11.646L14.7837 13.439C14.8501 13.5552 14.8501 13.6548 14.7505 13.7461L13.7793 14.7256C13.6797 14.8335 13.5718 14.8418 13.4639 14.7671L11.6543 13.6548C11.2974 13.8789 10.8325 14.0781 10.3262 14.2026L9.81982 16.2612C9.80322 16.394 9.72852 16.4521 9.5874 16.4521ZM8.88184 12.0361C10.6333 12.0361 12.0444 10.625 12.0444 8.87354C12.0444 7.12207 10.6333 5.71094 8.88184 5.71094C7.13037 5.71094 5.71924 7.12207 5.71924 8.87354C5.71924 10.625 7.13037 12.0361 8.88184 12.0361ZM8.88184 10.7495C7.84424 10.7495 7.00586 9.91113 7.00586 8.87354C7.00586 7.83594 7.84424 6.99756 8.88184 6.99756C9.91943 6.99756 10.7578 7.83594 10.7578 8.87354C10.7578 9.91113 9.91943 10.7495 8.88184 10.7495Z" fill="black" fill-opacity="0.85"/>
 </g>
</svg>
