<?xml version="1.0" encoding="UTF-8"?>
<!--Generator: Apple Native CoreSVG 341-->
<!DOCTYPE svg
PUBLIC "-//W3C//DTD SVG 1.1//EN"
       "http://www.w3.org/Graphics/SVG/1.1/DTD/svg11.dtd">
<svg version="1.1" xmlns="http://www.w3.org/2000/svg" xmlns:xlink="http://www.w3.org/1999/xlink" viewBox="0 0 17.0996 14.1528">
 <g>
  <rect height="14.1528" opacity="0" width="17.0996" x="0" y="0"/>
  <path d="M9.45937 11.4883C9.38036 11.6978 9.33838 11.9246 9.33838 12.1606C9.33838 12.3936 9.37926 12.6175 9.45629 12.8247L0.664062 12.8247C0.290527 12.8247 0 12.5342 0 12.1606C0 11.7871 0.290527 11.4883 0.664062 11.4883ZM16.7261 12.1606C16.7261 12.5342 16.4272 12.8247 16.0869 12.8247L13.2141 12.8247C13.2905 12.6175 13.3311 12.3936 13.3311 12.1606C13.3311 11.9246 13.2895 11.6978 13.2111 11.4883L16.0869 11.4883C16.4272 11.4883 16.7261 11.7871 16.7261 12.1606Z" fill="black" fill-opacity="0.85"/>
  <path d="M13.3311 12.1606C13.3311 13.2563 12.4346 14.1528 11.3389 14.1528C10.2432 14.1528 9.33838 13.2563 9.33838 12.1606C9.33838 11.0649 10.2432 10.1685 11.3389 10.1685C12.4346 10.1685 13.3311 11.0649 13.3311 12.1606ZM10.3677 12.1606C10.3677 12.7002 10.791 13.1318 11.3389 13.1318C11.8867 13.1318 12.3101 12.7002 12.3101 12.1606C12.3101 11.6045 11.8867 11.1895 11.3389 11.1895C10.791 11.1895 10.3677 11.6045 10.3677 12.1606Z" fill="black" fill-opacity="0.85"/>
  <path d="M3.60631 6.4165C3.52793 6.62606 3.48633 6.85284 3.48633 7.08887C3.48633 7.32142 3.52671 7.54537 3.6029 7.75293L0.664062 7.75293C0.290527 7.75293 0 7.4624 0 7.08887C0 6.71533 0.290527 6.4165 0.664062 6.4165ZM16.7261 7.08887C16.7261 7.4624 16.4272 7.75293 16.0869 7.75293L7.35413 7.75293C7.43032 7.54537 7.4707 7.32142 7.4707 7.08887C7.4707 6.85284 7.4291 6.62606 7.35072 6.4165L16.0869 6.4165C16.4272 6.4165 16.7261 6.71533 16.7261 7.08887Z" fill="black" fill-opacity="0.85"/>
  <path d="M7.4707 7.08887C7.4707 8.18457 6.57422 9.08936 5.47852 9.08936C4.38281 9.08936 3.48633 8.18457 3.48633 7.08887C3.48633 5.99316 4.38281 5.09668 5.47852 5.09668C6.57422 5.09668 7.4707 5.99316 7.4707 7.08887ZM4.50732 7.08887C4.50732 7.62842 4.93896 8.06006 5.47852 8.06006C6.02637 8.06006 6.44971 7.62842 6.44971 7.08887C6.44971 6.54102 6.02637 6.11768 5.47852 6.11768C4.93896 6.11768 4.50732 6.54102 4.50732 7.08887Z" fill="black" fill-opacity="0.85"/>
  <path d="M9.33838 2.01709C9.33838 2.25312 9.38036 2.4799 9.45937 2.68945L0.664062 2.68945C0.290527 2.68945 0 2.39062 0 2.01709C0 1.64355 0.290527 1.35303 0.664062 1.35303L9.45593 1.35303C9.37914 1.56059 9.33838 1.78454 9.33838 2.01709ZM16.7261 2.01709C16.7261 2.39062 16.4272 2.68945 16.0869 2.68945L13.2111 2.68945C13.2895 2.4799 13.3311 2.25312 13.3311 2.01709C13.3311 1.78454 13.2907 1.56059 13.2145 1.35303L16.0869 1.35303C16.4272 1.35303 16.7261 1.64355 16.7261 2.01709Z" fill="black" fill-opacity="0.85"/>
  <path d="M11.3389 4.00928C12.4346 4.00928 13.3311 3.11279 13.3311 2.01709C13.3311 0.921387 12.4346 0.0166016 11.3389 0.0166016C10.2432 0.0166016 9.33838 0.921387 9.33838 2.01709C9.33838 3.11279 10.2432 4.00928 11.3389 4.00928ZM11.3389 2.98828C10.791 2.98828 10.3677 2.55664 10.3677 2.00879C10.3677 1.46094 10.791 1.0376 11.3389 1.0376C11.8867 1.0376 12.3101 1.46094 12.3101 2.00879C12.3101 2.55664 11.8867 2.98828 11.3389 2.98828Z" fill="black" fill-opacity="0.85"/>
 </g>
</svg>
