<?xml version="1.0" encoding="UTF-8"?>
<!--Generator: Apple Native CoreSVG 341-->
<!DOCTYPE svg
PUBLIC "-//W3C//DTD SVG 1.1//EN"
       "http://www.w3.org/Graphics/SVG/1.1/DTD/svg11.dtd">
<svg version="1.1" xmlns="http://www.w3.org/2000/svg" xmlns:xlink="http://www.w3.org/1999/xlink" viewBox="0 0 20.0339 19.8085">
 <g>
  <rect height="19.8085" opacity="0" width="20.0339" x="0" y="0"/>
  <path d="M14.4443 2.8705L13.1588 4.15595L5.94543 4.15595C4.58411 4.15595 3.81213 4.92792 3.81213 6.28925L3.81213 14.0588C3.81213 15.4284 4.58411 16.1921 5.94543 16.1921L13.715 16.1921C15.0846 16.1921 15.8483 15.4284 15.8483 14.0588L15.8483 6.91014L17.1395 5.61656C17.1705 5.83039 17.1847 6.0583 17.1847 6.29755L17.1847 14.0588C17.1847 16.2917 15.9479 17.5285 13.715 17.5285L5.94543 17.5285C3.72083 17.5285 2.47571 16.2917 2.47571 14.0588L2.47571 6.29755C2.47571 4.06464 3.72083 2.81952 5.94543 2.81952L13.715 2.81952C13.9719 2.81952 14.2157 2.83601 14.4443 2.8705Z" fill="black" fill-opacity="0.85"/>
  <path d="M8.10364 12.1496L9.72229 11.444L17.4752 3.6994L16.338 2.5788L8.59338 10.3234L7.84631 11.884C7.77991 12.0251 7.94592 12.216 8.10364 12.1496ZM18.0895 3.09345L18.6871 2.47919C18.9694 2.18036 18.9694 1.78192 18.6871 1.508L18.4962 1.30878C18.2389 1.05145 17.8322 1.08466 17.5582 1.35028L16.9523 1.94794Z" fill="black" fill-opacity="0.85"/>
 </g>
</svg>
