<?xml version="1.0" encoding="UTF-8"?>
<!--Generator: Apple Native CoreSVG 341-->
<!DOCTYPE svg
PUBLIC "-//W3C//DTD SVG 1.1//EN"
       "http://www.w3.org/Graphics/SVG/1.1/DTD/svg11.dtd">
<svg version="1.1" xmlns="http://www.w3.org/2000/svg" xmlns:xlink="http://www.w3.org/1999/xlink" viewBox="0 0 12.4922 11.959">
 <g>
  <rect height="11.959" opacity="0" width="12.4922" x="0" y="0"/>
  <path d="M5.97656 11.9531C9.27539 11.9531 11.9531 9.26953 11.9531 5.97656C11.9531 2.67773 9.27539 0 5.97656 0C2.68359 0 0 2.67773 0 5.97656C0 9.26953 2.68359 11.9531 5.97656 11.9531Z" fill="black" fill-opacity="0.2125"/>
  <path d="M4.27148 8.38477L8.38477 4.26562C8.47852 4.17188 8.52539 4.05469 8.52539 3.91992C8.52539 3.65625 8.30859 3.44531 8.04492 3.44531C7.91016 3.44531 7.79883 3.49219 7.71094 3.58594L3.57422 7.69336C3.48633 7.79297 3.43359 7.9043 3.43359 8.03906C3.43359 8.30859 3.65039 8.53125 3.91992 8.53125C4.06055 8.53125 4.17773 8.47266 4.27148 8.38477ZM7.69336 8.38477C7.78711 8.47266 7.9043 8.53125 8.04492 8.53125C8.30859 8.53125 8.52539 8.30859 8.52539 8.03906C8.52539 7.9043 8.47852 7.79297 8.38477 7.69336L4.25977 3.58594C4.16602 3.49219 4.04883 3.44531 3.91992 3.44531C3.65039 3.44531 3.43359 3.65625 3.43359 3.91992C3.43359 4.05469 3.48633 4.17188 3.57422 4.26562Z" fill="black" fill-opacity="0.85"/>
 </g>
</svg>
