<?xml version="1.0" encoding="UTF-8"?>
<!--Generator: Apple Native CoreSVG 341-->
<!DOCTYPE svg
PUBLIC "-//W3C//DTD SVG 1.1//EN"
       "http://www.w3.org/Graphics/SVG/1.1/DTD/svg11.dtd">
<svg version="1.1" xmlns="http://www.w3.org/2000/svg" xmlns:xlink="http://www.w3.org/1999/xlink" viewBox="0 0 15.0327 19.7808">
 <g>
  <rect height="19.7808" opacity="0" width="15.0327" x="0" y="0"/>
  <path d="M7.32959 17.8301C11.3804 17.8301 14.6592 14.5513 14.6592 10.5005C14.6592 6.44971 11.3804 3.1709 7.32959 3.1709C6.44971 3.1709 5.59473 3.32861 4.83105 3.61914C4.60693 3.70215 4.2915 3.85986 4.2998 4.2832C4.30811 4.79785 4.81445 5.03857 5.23779 4.87256C5.89355 4.63184 6.59912 4.49902 7.32959 4.49902C10.6416 4.49902 13.3228 7.18018 13.3228 10.4922C13.3228 13.8042 10.6416 16.4854 7.32959 16.4854C4.01758 16.4854 1.33643 13.8042 1.33643 10.4922C1.33643 10.127 1.0376 9.82812 0.664062 9.82812C0.298828 9.82812 0 10.127 0 10.4922C0 14.5513 3.27881 17.8301 7.32959 17.8301ZM5.08008 4.16699L8.10986 1.16211C8.23438 1.0376 8.29248 0.85498 8.29248 0.680664C8.29248 0.307129 8.01025 0 7.63672 0C7.4375 0 7.27979 0.0830078 7.15527 0.20752L3.73535 3.67725C3.60254 3.81006 3.52783 3.99268 3.52783 4.17529C3.52783 4.35791 3.58594 4.52393 3.73535 4.67334L7.15527 8.10986C7.27979 8.22607 7.4292 8.30078 7.63672 8.30078C8.01025 8.30078 8.29248 8.01025 8.29248 7.62842C8.29248 7.4541 8.23438 7.28809 8.10156 7.16357Z" fill="black" fill-opacity="0.85"/>
 </g>
</svg>
