<?xml version="1.0" encoding="UTF-8"?>
<!--Generator: Apple Native CoreSVG 341-->
<!DOCTYPE svg
PUBLIC "-//W3C//DTD SVG 1.1//EN"
       "http://www.w3.org/Graphics/SVG/1.1/DTD/svg11.dtd">
<svg version="1.1" xmlns="http://www.w3.org/2000/svg" xmlns:xlink="http://www.w3.org/1999/xlink" viewBox="0 0 9.83058 9.29738">
 <g>
  <rect height="9.29738" opacity="0" width="9.83058" x="0" y="0"/>
  <path d="M8.39576 0.163338L0.151619 8.40748C-0.0475995 8.6067-0.0534588 8.94654 0.151619 9.14576C0.356697 9.34498 0.696541 9.34498 0.89576 9.14576L9.1399 0.901619C9.33912 0.702401 9.34498 0.362557 9.1399 0.163338C8.93482-0.0417401 8.60084-0.0475995 8.39576 0.163338ZM9.1399 8.40748L0.89576 0.163338C0.696541-0.0417401 0.350838-0.0475995 0.151619 0.163338C-0.0475995 0.368416-0.0475995 0.702401 0.151619 0.901619L8.39576 9.14576C8.59498 9.34498 8.94068 9.35084 9.1399 9.14576C9.33912 8.94068 9.33912 8.6067 9.1399 8.40748Z" fill="black" fill-opacity="0.85"/>
 </g>
</svg>
