<?xml version="1.0" encoding="UTF-8"?>
<!--Generator: Apple Native CoreSVG 341-->
<!DOCTYPE svg
PUBLIC "-//W3C//DTD SVG 1.1//EN"
       "http://www.w3.org/Graphics/SVG/1.1/DTD/svg11.dtd">
<svg version="1.1" xmlns="http://www.w3.org/2000/svg" xmlns:xlink="http://www.w3.org/1999/xlink" viewBox="0 0 8.32812 11.0259">
 <g>
  <rect height="11.0259" opacity="0" width="8.32812" x="0" y="0"/>
  <path d="M0 5.50977C0 5.66846 0.0571289 5.80811 0.177734 5.92871L5.21143 10.8481C5.31934 10.9624 5.45898 11.0195 5.62402 11.0195C5.9541 11.0195 6.20801 10.772 6.20801 10.4419C6.20801 10.2769 6.13818 10.1372 6.03662 10.0293L1.41553 5.50977L6.03662 0.990234C6.13818 0.882324 6.20801 0.736328 6.20801 0.577637C6.20801 0.247559 5.9541 0 5.62402 0C5.45898 0 5.31934 0.0571289 5.21143 0.165039L0.177734 5.09082C0.0571289 5.20508 0 5.35107 0 5.50977Z" fill="black" fill-opacity="0.85"/>
 </g>
</svg>
