<?xml version="1.0" encoding="UTF-8"?>
<!--Generator: Apple Native CoreSVG 341-->
<!DOCTYPE svg
PUBLIC "-//W3C//DTD SVG 1.1//EN"
       "http://www.w3.org/Graphics/SVG/1.1/DTD/svg11.dtd">
<svg version="1.1" xmlns="http://www.w3.org/2000/svg" xmlns:xlink="http://www.w3.org/1999/xlink" viewBox="0 0 15.8628 3.1626">
 <g>
  <rect height="3.1626" opacity="0" width="15.8628" x="0" y="0"/>
  <path d="M13.9121 3.146C14.7837 3.146 15.4893 2.44873 15.4893 1.57715C15.4893 0.705566 14.7837 0 13.9121 0C13.0405 0 12.335 0.705566 12.335 1.57715C12.335 2.44873 13.0405 3.146 13.9121 3.146Z" fill="black" fill-opacity="0.85"/>
  <path d="M7.74463 3.146C8.61621 3.146 9.31348 2.44873 9.31348 1.57715C9.31348 0.705566 8.61621 0 7.74463 0C6.87305 0 6.16748 0.705566 6.16748 1.57715C6.16748 2.44873 6.87305 3.146 7.74463 3.146Z" fill="black" fill-opacity="0.85"/>
  <path d="M1.57715 3.146C2.44873 3.146 3.146 2.44873 3.146 1.57715C3.146 0.705566 2.44873 0 1.57715 0C0.705566 0 0 0.705566 0 1.57715C0 2.44873 0.705566 3.146 1.57715 3.146Z" fill="black" fill-opacity="0.85"/>
 </g>
</svg>
