<?xml version="1.0" encoding="UTF-8"?>
<!--Generator: Apple Native CoreSVG 341-->
<!DOCTYPE svg
PUBLIC "-//W3C//DTD SVG 1.1//EN"
       "http://www.w3.org/Graphics/SVG/1.1/DTD/svg11.dtd">
<svg version="1.1" xmlns="http://www.w3.org/2000/svg" xmlns:xlink="http://www.w3.org/1999/xlink" viewBox="0 0 17.166 8.5249">
 <g>
  <rect height="8.5249" opacity="0" width="17.166" x="0" y="0"/>
  <path d="M0.622559 8.5249L16.1616 8.5249C16.5103 8.5249 16.7925 8.24268 16.7925 7.88574C16.7925 7.53711 16.5103 7.26318 16.1616 7.26318L0.622559 7.26318C0.273926 7.26318 0 7.53711 0 7.88574C0 8.24268 0.273926 8.5249 0.622559 8.5249Z" fill="black" fill-opacity="0.85"/>
  <path d="M0.622559 4.89746L16.1616 4.89746C16.5103 4.89746 16.7925 4.62354 16.7925 4.2749C16.7925 3.91797 16.5103 3.63574 16.1616 3.63574L0.622559 3.63574C0.273926 3.63574 0 3.91797 0 4.2749C0 4.62354 0.273926 4.89746 0.622559 4.89746Z" fill="black" fill-opacity="0.85"/>
  <path d="M0.622559 1.27832L16.1616 1.27832C16.5103 1.27832 16.7925 1.00439 16.7925 0.655762C16.7925 0.307129 16.5103 0.0249023 16.1616 0.0249023L0.622559 0.0249023C0.273926 0.0249023 0 0.307129 0 0.655762C0 1.00439 0.273926 1.27832 0.622559 1.27832Z" fill="black" fill-opacity="0.85"/>
 </g>
</svg>
