<?xml version="1.0" encoding="UTF-8"?>
<!--Generator: Apple Native CoreSVG 341-->
<!DOCTYPE svg
PUBLIC "-//W3C//DTD SVG 1.1//EN"
       "http://www.w3.org/Graphics/SVG/1.1/DTD/svg11.dtd">
<svg version="1.1" xmlns="http://www.w3.org/2000/svg" xmlns:xlink="http://www.w3.org/1999/xlink" viewBox="0 0 14.3354 17.8052">
 <g>
  <rect height="17.8052" opacity="0" width="14.3354" x="0" y="0"/>
  <path d="M2.57324 17.7969L11.3887 17.7969C13.1069 17.7969 13.9619 16.9253 13.9619 15.1987L13.9619 7.66162C13.9619 6.59082 13.8374 6.12598 13.1733 5.44531L8.59961 0.788574C7.96875 0.141113 7.4458 0 6.51611 0L2.57324 0C0.863281 0 0 0.879883 0 2.60645L0 15.1987C0 16.9336 0.85498 17.7969 2.57324 17.7969ZM2.63135 16.4604C1.77637 16.4604 1.33643 16.0039 1.33643 15.1738L1.33643 2.63135C1.33643 1.80957 1.77637 1.33643 2.63965 1.33643L6.3335 1.33643L6.3335 6.15918C6.3335 7.20508 6.85645 7.71973 7.89404 7.71973L12.6255 7.71973L12.6255 15.1738C12.6255 16.0039 12.1855 16.4604 11.3223 16.4604ZM8.04346 6.46631C7.71143 6.46631 7.58691 6.3335 7.58691 6.00146L7.58691 1.59375L12.3682 6.46631Z" fill="black" fill-opacity="0.85"/>
 </g>
</svg>
